<svg width="44" height="36" viewBox="0 0 44 36" fill="none" xmlns="http://www.w3.org/2000/svg">
<path fill-rule="evenodd" clip-rule="evenodd" d="M20.0213 9.87179C20.0213 4.41957 24.5144 0 30.0559 0C33.3089 0 35.9066 1.51332 37.6474 3.70945C39.5168 3.33329 41.2749 2.653 42.8655 1.72491C42.2384 3.65305 40.9113 5.27415 39.1811 6.30002C39.1827 6.30333 39.184 6.30667 39.1856 6.30999C40.8824 6.10742 42.4967 5.66369 44 5.00858L43.9965 5.01392C42.9149 6.6068 41.5554 8.01299 39.9924 9.15864C40.0765 9.71533 40.1192 10.2757 40.1192 10.8329C40.1192 22.4677 31.1063 36 14.5264 36C9.44863 36 4.71922 34.5368 0.738333 32.0251C-0.00758559 31.5545 -0.224296 30.5782 0.254294 29.8447C0.296561 29.7797 0.342873 29.7191 0.39265 29.6623C0.676616 29.2002 1.21759 28.9184 1.79855 28.9856C4.73597 29.3262 7.67262 28.9739 10.261 27.862C7.69374 26.7485 5.70081 24.5907 4.83668 21.9395C4.68119 21.4624 4.79275 20.9401 5.13024 20.5649C5.14196 20.5519 5.15386 20.5391 5.16596 20.5266C3.10962 18.7468 1.81245 16.1394 1.81245 13.2336V13.1268C1.81245 12.6235 2.08326 12.1578 2.52435 11.9027C2.66929 11.8188 2.82546 11.7618 2.98577 11.7317C2.28025 10.3934 1.88123 8.873 1.88123 7.26251C1.88123 5.78561 1.88983 3.92429 2.94725 2.24799C3.1843 1.87221 3.57071 1.64307 3.98414 1.58878C4.59225 1.40073 5.28224 1.58165 5.7097 2.09715C9.2121 6.32094 14.2678 9.23909 20.0223 10.0085L20.0213 9.87179ZM14.5264 32.8438C11.9995 32.8438 9.57299 32.43 7.30932 31.6687C10.0618 31.2 12.703 30.1335 14.9788 28.3796C15.46 28.0088 15.6516 27.38 15.4572 26.81C15.2629 26.2401 14.7247 25.8522 14.1134 25.8416C11.8577 25.8024 9.85962 24.7088 8.61056 23.0401C9.22147 22.9915 9.81841 22.8884 10.3966 22.7346C11.0436 22.5626 11.4852 21.9754 11.4631 21.3167C11.441 20.658 10.961 20.1008 10.3039 19.971C7.80504 19.4777 5.78919 17.6719 5.02812 15.3177C5.67276 15.4708 6.34182 15.5619 7.02798 15.584C7.67246 15.6047 8.25281 15.2028 8.45016 14.5991C8.64747 13.9953 8.41392 13.3361 7.87786 12.9837C6.0023 11.7506 4.76967 9.64565 4.76967 7.26251C4.76967 6.734 4.77724 6.2623 4.80943 5.83466C9.16649 10.1964 15.1282 13.006 21.7624 13.3345C22.2643 13.3593 22.749 13.1515 23.0721 12.7731C23.3952 12.3947 23.5194 11.8892 23.4077 11.4074C23.2923 10.9098 23.2307 10.3975 23.2307 9.87179C23.2307 6.16184 26.2878 3.15622 30.0559 3.15622C34.0172 3.15622 36.9098 6.7654 36.9098 10.8329C36.9098 21.1105 28.9653 32.8438 14.5264 32.8438Z" fill="black"/>
</svg>
